<?xml version="1.0" standalone="no"?>
<!DOCTYPE svg PUBLIC "-//W3C//DTD SVG 20010904//EN"
 "http://www.w3.org/TR/2001/REC-SVG-20010904/DTD/svg10.dtd">
<svg version="1.0" xmlns="http://www.w3.org/2000/svg"
 width="928.000000pt" height="928.000000pt" viewBox="0 0 928.000000 928.000000"
 preserveAspectRatio="xMidYMid meet">
<metadata>
Created by potrace 1.11, written by Peter Selinger 2001-2013
</metadata>
<g transform="translate(0.000000,928.000000) scale(0.100000,-0.100000)"
fill="#000000" stroke="none">
<path d="M4455 9000 c-27 -4 -72 -10 -100 -14 -52 -7 -90 -13 -90 -16 0 -1 -9
-3 -19 -5 -95 -18 -253 -73 -372 -130 -110 -52 -304 -171 -304 -187 0 -4 -5
-8 -11 -8 -6 0 -16 -6 -23 -12 -8 -7 -35 -32 -62 -54 -59 -51 -105 -95 -164
-161 -71 -79 -90 -102 -90 -112 0 -5 -4 -11 -8 -13 -11 -4 -88 -117 -119 -173
-51 -91 -131 -263 -138 -295 -2 -8 -10 -35 -18 -60 -44 -128 -76 -313 -82
-462 -2 -67 -2 -68 24 -69 34 -1 3488 -1 3522 0 25 1 26 3 24 60 -3 66 -14
180 -21 214 -2 12 -7 36 -9 52 -9 52 -46 199 -55 220 -5 11 -16 43 -26 70 -10
28 -21 55 -26 61 -4 6 -5 14 -1 17 3 4 1 7 -5 7 -7 0 -11 3 -10 8 3 11 -50
118 -101 202 -80 133 -203 286 -305 379 -16 14 -49 45 -75 68 -25 24 -49 43
-53 43 -5 0 -16 8 -26 18 -10 9 -29 24 -42 32 -12 8 -39 27 -59 41 -21 15 -47
30 -59 33 -12 4 -22 12 -22 17 0 5 -9 9 -20 9 -11 0 -20 4 -20 8 0 9 -176 91
-250 117 -3 1 -12 4 -20 8 -71 27 -248 70 -260 62 -6 -3 -10 -2 -10 2 0 5 -15
10 -32 11 -18 2 -60 6 -93 11 -71 10 -299 10 -370 1z"/>
<path d="M990 7566 c-73 -20 -120 -47 -171 -99 -87 -89 -117 -190 -94 -317 15
-88 39 -115 553 -632 l505 -507 1 -816 c1 -449 -2 -819 -5 -821 -4 -2 -292 -4
-642 -5 -354 0 -653 -5 -676 -10 -165 -37 -286 -184 -282 -342 1 -78 40 -197
63 -197 5 0 8 -5 8 -12 0 -15 89 -98 106 -98 6 0 17 -7 24 -15 7 -9 15 -13 18
-11 2 3 13 1 23 -5 36 -19 125 -21 742 -22 440 0 617 -3 618 -11 1 -6 3 -60 5
-121 5 -124 11 -220 13 -220 1 0 4 -29 6 -65 3 -36 6 -76 9 -90 2 -14 6 -50
10 -80 10 -81 44 -252 72 -360 14 -52 26 -99 27 -105 1 -5 7 -23 13 -40 6 -16
22 -61 34 -100 13 -38 26 -74 30 -80 4 -5 13 -28 20 -50 7 -22 30 -75 52 -119
42 -87 44 -76 -22 -150 -19 -22 -45 -51 -58 -65 -12 -14 -37 -42 -55 -61 -17
-20 -61 -69 -97 -109 -36 -41 -74 -84 -85 -97 -11 -12 -47 -52 -80 -90 -33
-37 -72 -80 -86 -96 -26 -28 -125 -140 -162 -182 -35 -39 -152 -170 -169 -188
-10 -10 -18 -20 -18 -22 0 -2 -17 -22 -37 -43 -21 -22 -69 -76 -108 -119 -38
-43 -80 -89 -92 -102 -13 -12 -23 -26 -23 -29 0 -4 -6 -14 -14 -22 -88 -99
-95 -297 -16 -413 46 -66 135 -131 200 -146 39 -9 168 -8 190 1 14 5 31 11 38
13 47 10 124 73 217 180 28 31 59 67 70 79 11 13 43 48 70 80 28 31 67 75 88
96 20 21 37 41 37 44 0 2 15 20 33 39 17 19 57 62 87 97 30 35 66 75 80 90 14
15 50 55 80 90 30 35 64 73 75 85 11 12 45 50 75 85 30 35 64 73 75 85 77 86
136 152 152 173 l19 24 55 -48 c115 -101 178 -149 315 -241 126 -85 322 -192
449 -246 22 -9 61 -26 88 -37 26 -11 48 -20 50 -20 1 0 15 -4 30 -10 16 -6 33
-11 38 -11 5 0 17 -4 27 -9 13 -7 93 -31 122 -36 3 -1 23 -6 45 -12 102 -26
197 -44 265 -49 19 -1 35 -3 35 -4 0 -5 190 -14 220 -11 7 1 10 839 10 2495
l0 2493 352 0 c248 0 353 -3 356 -11 2 -6 3 -1128 3 -2493 -1 -1650 2 -2483 9
-2484 62 -7 318 16 346 32 9 4 19 6 21 3 7 -6 237 49 298 71 25 9 52 18 60 20
19 4 131 47 193 74 26 11 49 21 52 21 14 2 257 131 265 141 3 3 13 8 23 12 10
4 63 37 118 74 55 38 108 73 117 78 9 6 19 12 22 15 3 3 38 32 79 64 l75 57
110 -110 c61 -61 237 -234 391 -386 154 -152 363 -358 465 -458 198 -195 210
-205 282 -230 64 -21 231 -13 248 12 3 5 15 12 28 15 47 15 158 152 168 209
13 68 17 100 15 107 -1 3 -4 25 -5 50 -8 108 -23 125 -663 765 l-594 593 45
89 c45 87 97 199 102 218 1 6 19 55 39 110 20 55 39 111 41 124 3 14 7 29 10
33 3 5 8 24 11 41 3 18 9 37 14 43 5 6 6 14 2 17 -3 4 -1 13 5 20 7 8 10 16 7
18 -2 3 2 29 10 59 14 51 28 129 28 158 0 6 3 12 6 12 3 0 6 17 7 38 1 20 4
57 8 82 22 157 31 287 35 516 l1 41 638 0 c350 0 655 3 677 8 22 5 45 9 51 11
25 5 104 57 134 87 105 107 133 270 69 402 -29 61 -80 125 -99 125 -5 0 -10 3
-10 8 0 10 -54 38 -108 56 -43 14 -167 16 -1239 16 l-113 0 0 821 0 820 508
507 c476 474 538 541 546 596 1 6 4 16 7 21 10 17 14 121 6 155 -12 49 -22 78
-36 101 -29 46 -85 109 -98 109 -7 0 -13 4 -13 9 0 4 -27 21 -61 36 -117 52
-276 31 -365 -50 -16 -14 -245 -241 -510 -505 l-481 -480 -2353 0 -2353 0
-491 490 c-270 269 -502 498 -516 508 -78 57 -200 82 -290 58z"/>
</g>
</svg>
